<svg xmlns="http://www.w3.org/2000/svg" viewBox="0 0 128 128">
  <defs>
    <linearGradient id="body" x1="18" x2="110" y1="12" y2="116" gradientUnits="userSpaceOnUse">
      <stop offset="0" stop-color="#5a5d63"/>
      <stop offset="0.58" stop-color="#34373c"/>
      <stop offset="1" stop-color="#1c1e22"/>
    </linearGradient>
    <linearGradient id="shutter" x1="30" x2="98" y1="18" y2="66" gradientUnits="userSpaceOnUse">
      <stop offset="0" stop-color="#f7f8fa"/>
      <stop offset="1" stop-color="#b9bec6"/>
    </linearGradient>
    <linearGradient id="label" x1="29" x2="99" y1="73" y2="110" gradientUnits="userSpaceOnUse">
      <stop offset="0" stop-color="#ffdc3d"/>
      <stop offset="1" stop-color="#ff6b00"/>
    </linearGradient>
    <filter id="shadow" x="-20%" y="-20%" width="140%" height="150%">
      <feDropShadow dx="0" dy="4" stdDeviation="4" flood-color="#000000" flood-opacity="0.28"/>
    </filter>
  </defs>

  <path
      d="M19 10h78l12 12v86c0 6.1-4.9 11-11 11H30c-6.1 0-11-4.9-11-11z"
      fill="url(#body)"
      filter="url(#shadow)"/>
  <path d="M97 10v12h12z" fill="#ff6b00"/>

  <rect x="30" y="20" width="68" height="45" rx="4" fill="#ff0000"/>
  <rect x="39" y="20" width="43" height="37" rx="3" fill="url(#shutter)"/>
  <rect x="73" y="25" width="9" height="27" rx="1.5" fill="#2a2d32"/>
  <rect x="89" y="28" width="4" height="30" rx="1.5" fill="#8b9099"/>

  <rect x="29" y="76" width="70" height="31" rx="4" fill="url(#label)"/>
  <rect x="38" y="82" width="11" height="19" rx="1.5" fill="#222428"/>
  <rect x="57" y="84" width="31" height="4" rx="2" fill="#ffffff" opacity="0.55"/>
  <rect x="57" y="94" width="24" height="4" rx="2" fill="#222428" opacity="0.35"/>

  <rect x="29" y="112" width="70" height="5" rx="2.5" fill="#6c7077"/>
  <circle cx="52" cy="104" r="2.5" fill="#17191c"/>
  <circle cx="76" cy="104" r="2.5" fill="#17191c"/>
  <rect x="25" y="24" width="7" height="17" rx="1.5" fill="#1a1c20"/>
</svg>
